<svg width="11" height="12" viewBox="0 0 11 12" fill="none" xmlns="http://www.w3.org/2000/svg">
<path id="Delete" fill-rule="evenodd" clip-rule="evenodd" d="M10.3723 1.94578C10.6057 1.94578 10.8 2.13958 10.8 2.38618V2.61417C10.8 2.85477 10.6057 3.05457 10.3723 3.05457H0.428312C0.194316 3.05457 0 2.85477 0 2.61417V2.38618C0 2.13958 0.194316 1.94578 0.428312 1.94578H2.17774C2.53311 1.94578 2.84238 1.69318 2.92233 1.33679L3.01394 0.927591C3.15632 0.370196 3.6249 0 4.16116 0H6.63884C7.16927 0 7.6431 0.370196 7.78022 0.898191L7.87826 1.33619C7.95762 1.69318 8.26689 1.94578 8.62284 1.94578H10.3723ZM9.48376 10.2805C9.6664 8.57831 9.98618 4.53435 9.98618 4.49355C9.99785 4.36996 9.95758 4.25296 9.87764 4.15876C9.79186 4.07056 9.68332 4.01836 9.5637 4.01836H1.24137C1.12117 4.01836 1.00679 4.07056 0.927435 4.15876C0.846907 4.25296 0.807227 4.36996 0.813062 4.49355C0.814135 4.50105 0.825609 4.6435 0.844792 4.88165C0.930012 5.9396 1.16736 8.88618 1.32073 10.2805C1.42927 11.3077 2.10325 11.9533 3.0795 11.9767C3.83284 11.9941 4.60893 12.0001 5.40254 12.0001C6.15004 12.0001 6.90922 11.9941 7.6859 11.9767C8.69599 11.9593 9.36938 11.3251 9.48376 10.2805Z" fill="white"/>
</svg>
