<svg width="18" height="22" viewBox="0 0 18 22" fill="none" xmlns="http://www.w3.org/2000/svg">
<path d="M8.79331 19.5299C6.46331 19.5299 4.13331 19.1599 1.92331 18.4199C1.08331 18.1299 0.443307 17.5399 0.163307 16.7699C-0.126693 15.9999 -0.0266934 15.1499 0.433307 14.3899L1.58331 12.4799C1.82331 12.0799 2.04331 11.2799 2.04331 10.8099V7.91992C2.04331 4.19992 5.07331 1.16992 8.79331 1.16992C12.5133 1.16992 15.5433 4.19992 15.5433 7.91992V10.8099C15.5433 11.2699 15.7633 12.0799 16.0033 12.4899L17.1433 14.3899C17.5733 15.1099 17.6533 15.9799 17.3633 16.7699C17.0733 17.5599 16.4433 18.1599 15.6533 18.4199C13.4533 19.1599 11.1233 19.5299 8.79331 19.5299ZM8.79331 2.66992C5.90331 2.66992 3.54331 5.01992 3.54331 7.91992V10.8099C3.54331 11.5399 3.24331 12.6199 2.87331 13.2499L1.72331 15.1599C1.50331 15.5299 1.44331 15.9199 1.57331 16.2499C1.69331 16.5899 1.99331 16.8499 2.40331 16.9899C6.58331 18.3899 11.0133 18.3899 15.1933 16.9899C15.5533 16.8699 15.8333 16.5999 15.9633 16.2399C16.0933 15.8799 16.0633 15.4899 15.8633 15.1599L14.7133 13.2499C14.3333 12.5999 14.0433 11.5299 14.0433 10.7999V7.91992C14.0433 5.01992 11.6933 2.66992 8.79331 2.66992Z" fill="#989898"/>
<path d="M10.4548 2.93969C10.3848 2.93969 10.3148 2.92969 10.2448 2.90969C9.95482 2.82969 9.67482 2.76969 9.40482 2.72969C8.55482 2.61969 7.73482 2.67969 6.96482 2.90969C6.68482 2.99969 6.38482 2.90969 6.19482 2.69969C6.00482 2.48969 5.94482 2.18969 6.05482 1.91969C6.46482 0.869688 7.46482 0.179688 8.60482 0.179688C9.74482 0.179688 10.7448 0.859688 11.1548 1.91969C11.2548 2.18969 11.2048 2.48969 11.0148 2.69969C10.8648 2.85969 10.6548 2.93969 10.4548 2.93969Z" fill="#989898"/>
<path d="M8.75 21.8096C7.76 21.8096 6.8 21.4096 6.1 20.7096C5.4 20.0096 5 19.0496 5 18.0596H6.5C6.5 18.6496 6.74 19.2296 7.16 19.6496C7.58 20.0696 8.16 20.3096 8.75 20.3096C9.99 20.3096 11 19.2996 11 18.0596H12.5C12.5 20.1296 10.82 21.8096 8.75 21.8096Z" fill="#989898"/>
</svg>
