<svg width="32" height="32" viewBox="0 0 32 32" fill="none" xmlns="http://www.w3.org/2000/svg">
<g id="Group 108">
<circle id="Ellipse 31" cx="16" cy="16" r="16" fill="#F39200"/>
<path id="Union" fill-rule="evenodd" clip-rule="evenodd" d="M20.382 18H12.764L11.127 12H23.382L20.382 18ZM25.083 10.948C24.716 10.354 24.08 10 23.382 10H10.582L9.965 7.737C9.846 7.302 9.451 7 9 7H7C6.447 7 6 7.448 6 8C6 8.552 6.447 9 7 9H8.236L11.035 19.263C11.154 19.698 11.549 20 12 20H21C21.379 20 21.725 19.786 21.895 19.447L25.171 12.894C25.484 12.269 25.45 11.542 25.083 10.948ZM11.5002 22C10.6722 22 10.0002 22.671 10.0002 23.5C10.0002 24.329 10.6722 25 11.5002 25C12.3282 25 13.0002 24.329 13.0002 23.5C13.0002 22.671 12.3282 22 11.5002 22ZM20.0002 23.5C20.0002 22.671 20.6722 22 21.5002 22C22.3282 22 23.0002 22.671 23.0002 23.5C23.0002 24.329 22.3282 25 21.5002 25C20.6722 25 20.0002 24.329 20.0002 23.5Z" fill="white"/>
</g>
</svg>
