<svg width="13" height="12" viewBox="0 0 13 12" fill="none" xmlns="http://www.w3.org/2000/svg">
<path id="Union" fill-rule="evenodd" clip-rule="evenodd" d="M9.82668 4.99949L7.80261 2.97542L9.26565 1.51163L11.289 3.53495L9.82668 4.99949ZM12.3691 2.49025L12.3683 2.4895L10.312 0.43313C9.75545 -0.121893 8.79937 -0.14818 8.27213 0.381308L1.51572 7.13772C1.27088 7.38181 1.11917 7.70627 1.08762 8.04949L0.802975 11.1814C0.783448 11.4029 0.862308 11.6222 1.02003 11.7799C1.16198 11.9219 1.35349 12 1.55102 12C1.5743 12 1.59683 11.9992 1.61936 11.997L4.75123 11.7123C5.09521 11.6808 5.41891 11.5298 5.663 11.2858L12.4202 4.52859C12.9669 3.98032 12.9436 3.06555 12.3691 2.49025Z" fill="white"/>
</svg>
