<svg width="41" height="40" viewBox="0 0 41 40" fill="none" xmlns="http://www.w3.org/2000/svg">
<g id="Group 98">
<g id="icon/image">
<rect id="Rectangle 501" x="0.40918" width="40" height="40" rx="10" fill="#161616"/>
</g>
<path id="Union" fill-rule="evenodd" clip-rule="evenodd" d="M24.4092 19H21.4092V16C21.4092 15.447 20.9612 15 20.4092 15C19.8572 15 19.4092 15.447 19.4092 16V20C19.4092 20.553 19.8572 21 20.4092 21H24.4092C24.9622 21 25.4092 20.553 25.4092 20C25.4092 19.447 24.9622 19 24.4092 19ZM20.4092 28C15.9982 28 12.4092 24.411 12.4092 20C12.4092 15.589 15.9982 12 20.4092 12C24.8202 12 28.4092 15.589 28.4092 20C28.4092 24.411 24.8202 28 20.4092 28ZM20.4092 10C14.8952 10 10.4092 14.486 10.4092 20C10.4092 25.514 14.8952 30 20.4092 30C25.9232 30 30.4092 25.514 30.4092 20C30.4092 14.486 25.9232 10 20.4092 10Z" fill="#989898"/>
</g>
</svg>
