<svg width="15" height="15" viewBox="0 0 15 15" fill="none" xmlns="http://www.w3.org/2000/svg">
<path id="Union" fill-rule="evenodd" clip-rule="evenodd" d="M11.4857 6.8015L9.12425 4.44008L10.8311 2.73233L13.1917 5.09287L11.4857 6.8015ZM14.4518 3.87404L14.4509 3.87316L12.0518 1.47407C11.4026 0.826541 10.2871 0.795873 9.67202 1.41361L1.78954 9.29609C1.50389 9.58087 1.32689 9.95939 1.29009 10.3598L0.958004 14.0137C0.935222 14.2722 1.02723 14.528 1.21123 14.712C1.37684 14.8776 1.60027 14.9688 1.83072 14.9688C1.85788 14.9688 1.88417 14.9679 1.91046 14.9652L5.5643 14.6332C5.96561 14.5964 6.34326 14.4202 6.62803 14.1355L14.5114 6.2521C15.1493 5.61246 15.1221 4.54522 14.4518 3.87404Z" fill="#F43C3C"/>
</svg>
