<svg width="17" height="17" viewBox="0 0 17 17" fill="none" xmlns="http://www.w3.org/2000/svg">
<g id="Frame">
<path id="Vector" fill-rule="evenodd" clip-rule="evenodd" d="M1.37252 8.62525C1.64047 8.35728 2.00381 8.20656 2.38277 8.20619C2.76173 8.20581 3.12536 8.35581 3.39385 8.62325L6.09118 11.3099L14.5145 2.88659C14.7823 2.61904 15.1453 2.46875 15.5238 2.46875C15.9024 2.46875 16.2654 2.61904 16.5332 2.88659L16.5372 2.89059C16.805 3.16062 16.955 3.52575 16.9542 3.90608C16.9535 4.28641 16.8021 4.65095 16.5332 4.91992L7.31785 14.1359C7.15677 14.297 6.96553 14.4248 6.75506 14.512C6.54459 14.5992 6.319 14.6441 6.09118 14.6441C5.86337 14.6441 5.63778 14.5992 5.42731 14.512C5.21683 14.4248 5.0256 14.297 4.86452 14.1359L1.37252 10.6446C1.10476 10.3768 0.954346 10.0136 0.954346 9.63492C0.954346 9.25623 1.10476 8.89305 1.37252 8.62525Z" fill="#6DCE6A"/>
</g>
</svg>
